<svg fill="#34C8FF" xmlns="http://www.w3.org/2000/svg" xmlns:xlink="http://www.w3.org/1999/xlink" version="1.1" x="0px" y="0px" viewBox="0 0 100 100" style="enable-background:new 0 0 100 100;" xml:space="preserve"><path d="M23.3,63.3C23.3,78.1,35.3,90,50,90s26.7-11.9,26.7-26.7S50,10,50,10S23.3,48.6,23.3,63.3z M69.5,58.4  c0,1.8-1.5,3.3-3.3,3.3s-3.3-1.5-3.3-3.3c0-1.8,1.5-3.3,3.3-3.3S69.5,56.6,69.5,58.4z M50,79.6c0-1.6,1.1-2.9,2.6-3.2  c4.9-1,8.9-4.7,10.2-9.5c0.4-1.5,1.7-2.5,3.2-2.5l0,0c2.2,0,3.8,2.1,3.2,4.2c-2,7.2-7.9,12.8-15.3,14.3C51.9,83.4,50,81.8,50,79.6  L50,79.6z"></path></svg>