<svg fill="#FF68D7" xmlns="http://www.w3.org/2000/svg" xmlns:xlink="http://www.w3.org/1999/xlink" version="1.1" x="0px" y="0px" viewBox="0 0 100 100" style="enable-background:new 0 0 100 100;" xml:space="preserve"><style type="text/css">
	.st0{fill:#FF68D7;}
	.st1{fill:#FF68D7;stroke:#FF68D7;stroke-linecap:round;stroke-linejoin:round;stroke-miterlimit:10;}
	.st2{fill:#FF68D7;stroke:#FF68D7;stroke-width:1.5;}
	.st3{fill:none;stroke:#FF68D7;stroke-width:1.5;}
	.st4{fill:url(#SVGID_1_);}
	.st5{fill:#FF68D7;}
	.st6{fill:#FF68D7;}
	.st7{fill:none;stroke:#FF68D7;stroke-miterlimit:10;}
	.st8{fill:#FF68D7;}
	.st9{fill:none;stroke:#FF68D7;stroke-width:2;stroke-linecap:round;stroke-linejoin:round;stroke-miterlimit:10;}
	.st10{fill:none;stroke:#FF68D7;stroke-width:2;stroke-linecap:round;stroke-linejoin:round;stroke-miterlimit:10;}
	.st11{fill:none;stroke:#FF68D7;stroke-width:2;stroke-linecap:round;stroke-linejoin:round;stroke-miterlimit:10;}
	.st12{fill:none;stroke:#FF68D7;stroke-width:3;stroke-linecap:round;stroke-linejoin:round;stroke-miterlimit:10;}
	.st13{fill:none;stroke:#FF68D7;stroke-width:2;stroke-linejoin:round;stroke-miterlimit:10;}
	.st14{fill:none;stroke:#FF68D7;stroke-width:2;stroke-miterlimit:10;}
	.st15{fill:none;stroke:#FF68D7;stroke-width:5;stroke-miterlimit:10;}
	.st16{fill:none;stroke:#FF68D7;stroke-width:5;stroke-miterlimit:10;}
	.st17{fill:none;stroke:#FF68D7;stroke-width:5;stroke-linecap:round;stroke-linejoin:round;stroke-miterlimit:10;}
	.st18{fill:none;stroke:#FF68D7;stroke-width:10;stroke-linecap:round;stroke-linejoin:round;stroke-miterlimit:10;}
	.st19{fill:none;stroke:#FF68D7;stroke-width:5;stroke-linecap:round;stroke-linejoin:round;stroke-miterlimit:10;}
	.st20{fill:none;stroke:#FF68D7;stroke-width:8;stroke-linecap:round;stroke-linejoin:round;stroke-miterlimit:10;}
</style><path d="M74.5687,39.821c18.5303-19.9916,5.5979-32.9243-14.3911-14.3936c-1.0295-27.2378-19.32-27.2369-20.3524,0.0045  c-19.9911-18.5385-32.927-5.6024-14.39,14.3929c-27.246,1.0309-27.2468,19.3256-0.0031,20.3533  c-18.5312,19.9918-5.5989,32.926,14.3885,14.3949c1.0316,27.2366,19.3211,27.2358,20.3546-0.0018  c19.9915,18.5346,32.9258,5.5981,14.39-14.396C101.8106,59.1439,101.8114,40.851,74.5687,39.821z M50,62.5  c-6.9036,0-12.5-5.5964-12.5-12.5S43.0964,37.5,50,37.5S62.5,43.0964,62.5,50S56.9036,62.5,50,62.5z"></path></svg>