<svg xmlns="http://www.w3.org/2000/svg" xmlns:xlink="http://www.w3.org/1999/xlink" width="100" height="100" viewBox="0 0 100 100"><g><circle stroke="none" fill="#4cb5ae" r="48%" cx="50%" cy="50%"></circle><g transform="translate(50 50) scale(0.69 0.69) rotate(0) translate(-50 -50)" style="fill:#ffffff"><svg fill="#ffffff" xmlns="http://www.w3.org/2000/svg" xmlns:xlink="http://www.w3.org/1999/xlink" xml:space="preserve" version="1.1" style="shape-rendering:geometricPrecision;text-rendering:geometricPrecision;image-rendering:optimizeQuality;" viewBox="0 0 333 333" x="0px" y="0px" fill-rule="evenodd" clip-rule="evenodd"><defs><style type="text/css">
   
    .fil0 {fill:#ffffff}
   
  </style></defs><g><path class="fil0" d="M99 147c1,0 2,1 4,1l0 -16 -17 0c-4,0 -8,-4 -8,-9l0 -55c0,-2 1,-3 3,-3l5 0c5,0 9,4 9,9l0 40 41 0c5,0 9,4 9,9l0 5c0,2 -2,4 -4,4l-19 0 0 13 51 0 0 -30 -21 -20 -11 11c-4,5 -9,-1 -5,-5l26 -27c4,-4 10,1 5,5l-11 12 17 17 0 -4c0,-3 3,-5 6,-5l130 0c3,0 6,2 6,5l0 43c0,3 -3,5 -6,6l0 5 -139 0c-2,0 -2,5 0,5l139 0 0 16 -139 0c-2,0 -2,5 0,5l139 0 0 11 -10 0 0 5c15,3 26,16 26,31 0,18 -14,33 -32,33 -18,0 -32,-15 -32,-33 0,-15 11,-28 26,-31l0 -5 -34 0 0 10c0,4 -3,7 -6,7l-83 0c-3,0 -6,-3 -6,-7l0 -10 -20 0c-1,0 -2,1 -3,1 0,4 0,8 0,13 4,1 6,3 5,7l-2 7c-1,4 -4,5 -8,4 -2,4 -4,8 -6,11 2,3 3,7 0,10l-4 4c-3,3 -7,2 -10,0 -3,2 -7,4 -11,6 1,4 0,7 -4,8l-7 2c-4,1 -6,-1 -7,-5 -4,0 -9,0 -13,0 -1,4 -4,6 -8,5l-6 -2c-4,-1 -5,-4 -4,-8 -4,-2 -8,-4 -11,-6 -3,2 -7,3 -10,0l-5 -4c-3,-3 -2,-7 1,-10 -2,-3 -4,-7 -6,-11 -4,1 -8,0 -9,-4l-1 -7c-2,-4 1,-6 5,-7 -1,-4 -1,-9 0,-13 -4,-1 -7,-4 -5,-8l1 -6c1,-4 5,-5 9,-4 2,-4 4,-8 6,-11 -3,-3 -4,-7 -1,-10l5 -5c3,-3 7,-2 10,1 3,-2 7,-4 11,-6 -1,-4 0,-8 4,-9l6 -1c4,-1 7,1 8,5 4,-1 8,-1 13,0 1,-4 3,-6 7,-5l7 1c4,1 5,5 4,9zm193 -26l5 0 0 27 -5 0 0 -27zm-11 0l5 0 0 27 -5 0 0 -27zm-11 0l6 0 0 27 -6 0 0 -27zm-11 0l6 0 0 27 -6 0 0 -27zm34 103c4,0 8,3 8,7 0,5 -4,8 -8,8 -4,0 -8,-3 -8,-8 0,-4 4,-7 8,-7zm0 -13c11,0 21,9 21,20 0,12 -10,21 -21,21 -12,0 -21,-9 -21,-21 0,-11 9,-20 21,-20zm-192 14l-4 4 -7 -7 4 -4 7 7zm-42 -42l-4 4 -7 -7 4 -4 7 7zm-7 46l-4 -4 7 -7 4 4 -7 7zm42 -42l-4 -4 7 -7 4 4 -7 7zm-54 18l0 -5 10 0 0 5 -10 0zm59 0l0 -5 10 0 0 5 -10 0zm-27 -37l5 0 0 10 -5 0 0 -10zm0 59l5 0 0 10 -5 0 0 -10zm6 -40c9,3 14,11 11,19 -2,9 -10,14 -19,11 -8,-2 -13,-10 -11,-19 3,-8 11,-13 19,-11zm8 -28c24,6 39,31 32,55 -6,24 -31,39 -55,32 -24,-6 -39,-31 -32,-55 6,-24 31,-39 55,-32z"></path></g></svg></g></g></svg>