<svg xmlns="http://www.w3.org/2000/svg" xmlns:xlink="http://www.w3.org/1999/xlink" width="100" height="100" viewBox="0 0 100 100"><g><circle stroke="none" fill="#b9cfd4" r="48%" cx="50%" cy="50%"></circle><g transform="translate(50 50) scale(0.69 0.69) rotate(0) translate(-50 -50)" style="fill:#ffffff"><svg fill="#ffffff" xmlns="http://www.w3.org/2000/svg" xmlns:xlink="http://www.w3.org/1999/xlink" version="1.1" x="0px" y="0px" viewBox="0 0 66 66" enable-background="new 0 0 66 66" xml:space="preserve"><g><g><rect x="26.8" y="17.1" width="5.2" height="5.2"></rect></g><g><rect x="26.8" y="24.3" width="5.2" height="5.2"></rect></g><g><rect x="34" y="17.1" width="5.2" height="5.2"></rect></g><g><rect x="34" y="24.3" width="5.2" height="5.2"></rect></g><g><path d="M24.1,54.9c3.1,0,5.6-2.5,5.6-5.6c0-3.1-2.5-5.6-5.6-5.6c-3.1,0-5.6,2.5-5.6,5.6C18.5,52.4,21,54.9,24.1,54.9z M23.9,49.5    c-1.1-0.4-1.9-1-1.9-1.9c0-0.9,0.7-1.7,1.7-1.8v-1.1h0.7v1.1c0.7,0,1.1,0.2,1.5,0.4l-0.3,0.7c-0.2-0.1-0.7-0.4-1.4-0.4    c-0.9,0-1.2,0.5-1.2,1c0,0.6,0.4,0.9,1.4,1.3c1.2,0.5,1.8,1.1,1.8,2.1c0,0.9-0.6,1.7-1.8,1.9v1.2h-0.7v-1.1    c-0.7,0-1.3-0.2-1.7-0.5l0.3-0.8c0.4,0.3,1,0.5,1.6,0.5c0.8,0,1.3-0.5,1.3-1.1C25.2,50.3,24.8,49.9,23.9,49.5z"></path></g><g><path d="M38.9,52.6h-1.7v7h9.5v-16h-9.5v7h1.7c0.5,0,1,0.5,1,1S39.5,52.6,38.9,52.6z"></path></g><g><path d="M7.5,29.1l3-2.6v34.2c0,0.5,0.4,1,1,1h24.8c-0.6,0-1-0.5-1-1v-18c0-0.5,0.4-1,1-1h11.5c0.5,0,1,0.5,1,1v18    c0,0.5-0.5,1-1,1h6.8c0.6,0,1-0.5,1-1V26.5l3,2.6c0.4,0.4,1,0.3,1.4-0.1c0.4-0.4,0.3-1-0.1-1.4C41,11,35.5,6.2,34.1,4.9    c0,0-0.1-0.1-0.2-0.2c0,0,0,0,0,0c0,0,0,0,0,0c0,0,0,0,0,0c0,0,0,0-0.1-0.1c0,0,0,0,0,0c0,0,0,0,0,0c0,0,0,0,0,0c0,0,0,0,0,0    c0,0,0,0-0.1-0.1c0,0,0,0,0,0c0,0,0,0,0,0c0,0,0,0,0,0c-0.4-0.3-1-0.3-1.3,0C9.1,25,25.7,10.4,6.2,27.6c-0.4,0.4-0.5,1-0.1,1.4    C6.5,29.4,7.1,29.5,7.5,29.1z M34,4.9C34,4.9,34,4.8,34,4.9C34,4.8,34,4.9,34,4.9z M24.8,16.1c0-0.5,0.4-1,1-1h14.4    c0.5,0,1,0.4,1,1v14.5c0,0.5-0.5,1-1,1H25.8c-0.6,0-1-0.5-1-1V16.1z M24.1,41.6c4.2,0,7.6,3.4,7.6,7.6c0,4.2-3.4,7.6-7.6,7.6    s-7.6-3.4-7.6-7.6C16.5,45.1,19.9,41.6,24.1,41.6z"></path></g><g><path d="M33.8,4.6C33.8,4.6,33.8,4.6,33.8,4.6C33.7,4.6,33.7,4.6,33.8,4.6C33.7,4.6,33.7,4.6,33.8,4.6L33.8,4.6    C33.7,4.6,33.7,4.6,33.8,4.6z"></path></g><g><path d="M33.9,4.7C33.9,4.7,33.8,4.7,33.9,4.7C33.8,4.7,33.8,4.7,33.9,4.7C33.9,4.7,33.9,4.7,33.9,4.7z"></path></g><g><path d="M33.9,4.8C33.9,4.8,33.9,4.8,33.9,4.8C33.9,4.8,33.9,4.8,33.9,4.8z"></path></g><g><path d="M44.4,11.3l8.2,7.3v-7.9c0-0.5-0.5-1-1-1h-6.2C44.1,9.7,44.4,11.2,44.4,11.3z"></path></g><g><path d="M1.5,54.3h2.3v6.4c0,0.5,0.4,1,1,1s1-0.5,1-1v-6.4h1.4v6.4c0,0.5,0.4,1,1,1c0.2,0,0.3,0,0.4-0.1c-0.1-0.3-0.1-0.6-0.1-0.9    V50.2c-0.1,0-0.2-0.1-0.3-0.1c-0.5,0-1,0.4-1,1v1.2H5.8v-1.2c0-0.6-0.4-1-1-1s-1,0.4-1,1v1.2H1.5c-0.6,0-1,0.5-1,1    S0.9,54.3,1.5,54.3z"></path></g><g><path d="M59.1,51.1c0-0.6-0.5-1-1-1c-0.2,0-0.4,0.1-0.5,0.2v10.4c0,0.3,0,0.5-0.1,0.8c0.2,0.1,0.4,0.2,0.6,0.2c0.5,0,1-0.5,1-1    v-6.4h1.4v6.4c0,0.5,0.4,1,1,1c0.5,0,1-0.5,1-1v-6.4h2c0.6,0,1-0.5,1-1s-0.4-1-1-1h-2v-1.2c0-0.6-0.5-1-1-1c-0.6,0-1,0.4-1,1v1.2    h-1.4V51.1z"></path></g></g></svg></g></g></svg>