<svg xmlns="http://www.w3.org/2000/svg" xmlns:xlink="http://www.w3.org/1999/xlink" width="100" height="100" viewBox="0 0 100 100"><g><circle stroke="none" fill="#81d6e3" r="48%" cx="50%" cy="50%"></circle><g transform="translate(50 50) scale(0.69 0.69) rotate(0) translate(-50 -50)" style="fill:#ffffff"><svg fill="#ffffff" xmlns:dc="http://purl.org/dc/elements/1.1/" xmlns:cc="http://creativecommons.org/ns#" xmlns:rdf="http://www.w3.org/1999/02/22-rdf-syntax-ns#" xmlns:svg="http://www.w3.org/2000/svg" xmlns="http://www.w3.org/2000/svg" xmlns:sodipodi="http://sodipodi.sourceforge.net/DTD/sodipodi-0.dtd" xmlns:inkscape="http://www.inkscape.org/namespaces/inkscape" viewBox="0 0 32 32.000001" version="1.1" x="0px" y="0px"><g transform="translate(0,-1020.3622)"><g transform="translate(-342.16021,880.9582)"><g transform="translate(-0.84842647,-43.458202)"><g transform="translate(-46.734174,-0.58020543)"><path style="color:#000000;clip-rule:nonzero;display:inline;overflow:visible;visibility:visible;opacity:1;isolation:auto;mix-blend-mode:normal;color-interpolation:sRGB;color-interpolation-filters:linearRGB;solid-color:#000000;solid-opacity:1;fill:#ffffff;fill-opacity:1;fill-rule:nonzero;stroke:none;stroke-width:1;stroke-linecap:round;stroke-linejoin:round;stroke-miterlimit:4;stroke-dasharray:none;stroke-dashoffset:0;stroke-opacity:1;color-rendering:auto;image-rendering:auto;shape-rendering:auto;text-rendering:auto;enable-background:accumulate" d="m 391.7389,183.93827 c -0.82251,0 -1.5,0.6775 -1.5,1.5 0,0.82251 0.67749,1.5 1.5,1.5 a 0.50005,0.50005 0 0 0 0.0527,-0.002 0.50005,0.50005 0 0 0 0.0527,0.002 l 1.89844,0 0.0352,0 0.46875,0 a 0.50005,0.50005 0 0 0 0.008,0 0.50005,0.50005 0 0 0 0.041,0 l 3.45117,0 c 0.28206,0 0.5,0.21794 0.5,0.5 0,0.28207 -0.21794,0.5 -0.5,0.5 a 0.50005,0.50005 0 0 0 -0.0215,0 0.50005,0.50005 0 0 0 -0.0156,0 l -2.95312,0 a 0.50005,0.50005 0 0 0 -0.1543,0.0234 c -1.30577,0.10838 -2.35937,1.16137 -2.35937,2.47071 a 0.50005,0.50005 0 0 0 0,0.01 l -1.5,0 0,25 3,-0.008 a 1.0001,1.0001 0 0 1 0,-0.002 l 0,-14.99024 a 1.0001,1.0001 0 0 1 0.49023,-0.85937 l 3.50977,-2.08008 0,-7.06055 -2.5,0 a 0.50005,0.50005 0 0 0 0,-0.01 c 0,-0.81928 0.68977,-1.49218 1.57617,-1.49218 a 0.50005,0.50005 0 0 0 0.0606,-0.002 l 0.83007,0 a 0.50005,0.50005 0 0 0 0.002,0 0.50005,0.50005 0 0 0 0.0664,-0.004 c 0.80797,-0.0173 1.46875,-0.6843 1.46875,-1.4961 0,-0.76508 -0.59015,-1.39684 -1.33399,-1.48242 a 0.50005,0.50005 0 0 0 -0.13085,-0.0175 l -3.52734,0 a 0.50005,0.50005 0 0 0 -0.008,0 l -0.50391,0 c -0.28206,0 -0.5,-0.21793 -0.5,-0.5 0,-0.28206 0.21794,-0.5 0.5,-0.5 a 0.50005,0.50005 0 1 0 0,-1 c -0.8225,0 -1.5,0.6775 -1.5,1.5 0,0.17566 0.0352,0.34275 0.0918,0.5 l -0.49024,0 a 0.50005,0.50005 0 0 0 -0.0508,0.002 0.50005,0.50005 0 0 1 -0.002,0 0.50005,0.50005 0 0 0 -0.0527,-0.002 c -0.28207,0 -0.5,-0.21793 -0.5,-0.5 0,-0.28206 0.21793,-0.5 0.5,-0.5 a 0.50005,0.50005 0 1 0 0,-1 z m 3.02734,5.00781 c -0.32377,0.41554 -0.52343,0.92481 -0.52343,1.48633 a 0.50005,0.50005 0 0 0 0,0.01 l -1,0 a 0.50005,0.50005 0 0 0 0,-0.01 c 0,-0.8025 0.66328,-1.45955 1.52343,-1.48633 z m 13.47657,7.49414 -6.75,4.00195 -0.002,-4 -6.74805,4 0,14.99024 27.00005,0.01 0,-19.00195 -6.75,4 0,-4 -6.75,4 0,-4 z m -10.5,6.99805 3,0 0,3 -3,0 0,-3 z m 6,0 3,0 0,3 -3,0 0,-3 z m 6,0 3,0 0,3 -3,0 0,-3 z m 6,0 3,0 0,3 -3,0 0,-3 z m -18,6 3,0 0,3 -3,0 0,-3 z m 6,0 3,0 0,3 -3,0 0,-3 z m 6,0 3,0 0,3 -3,0 0,-3 z m 6,0 3,0 0,3 -3,0 0,-3 z"></path></g></g></g></g></svg></g></g></svg>