<svg xmlns="http://www.w3.org/2000/svg" xmlns:xlink="http://www.w3.org/1999/xlink" width="100" height="100" viewBox="0 0 100 100"><g><circle stroke="none" fill="#fcfdff" r="48%" cx="50%" cy="50%"></circle><g transform="translate(50 50) scale(0.69 0.69) rotate(0) translate(-50 -50)" style="fill:#7a8cbd"><svg fill="#7a8cbd" xmlns="http://www.w3.org/2000/svg" xmlns:xlink="http://www.w3.org/1999/xlink" version="1.1" x="0px" y="0px" viewBox="0 0 512 512" enable-background="new 0 0 512 512" xml:space="preserve"><g><path d="M501.344,250.668h-42.688v-32c0-5.891-4.766-10.664-10.656-10.664H341.344c-5.906,0-10.688,4.773-10.688,10.664v32H106.664   c0-5.891-4.773-10.664-10.664-10.664s-10.664,4.773-10.664,10.664H74.664V80.004h0.008c0-29.406,23.922-53.336,53.328-53.336   c26.203,0,48.031,19,52.484,43.93c-23.891,5.281-41.813,26.617-41.813,52.07v21.336h106.656v-21.336   c0-25.977-18.672-47.664-43.297-52.375C197.266,33.691,165.891,5.34,128,5.34c-41.172,0-74.664,33.492-74.664,74.664l0,0v170.664   H42.664c0-5.891-4.773-10.664-10.664-10.664s-10.664,4.773-10.664,10.664H10.664C4.773,250.668,0,255.449,0,261.34   s4.773,10.664,10.664,10.664V378.66c0,45.219,35.156,82.203,79.617,85.156l-2.203,4.469c-6.492,13.188-1.07,29.156,12.125,35.641   c3.781,1.859,7.789,2.734,11.734,2.734c9.828,0,19.273-5.438,23.906-14.859l13.688-27.797h215l13.688,27.797   c4.625,9.422,14.094,14.859,23.906,14.859c3.938,0,7.953-0.875,11.75-2.734c13.188-6.484,18.609-22.453,12.109-35.641l-2.266-4.625   c43.5-3.906,77.625-40.469,77.625-85V272.004c5.875,0,10.656-4.773,10.656-10.664S507.219,250.668,501.344,250.668z M224,122.668   h-64c0-17.648,14.359-32,32-32S224,105.02,224,122.668z M352,229.34h10.656c0,5.891,4.781,10.664,10.688,10.664   c5.875,0,10.656-4.773,10.656-10.664h21.344c0,5.883,4.766,10.664,10.656,10.664s10.656-4.781,10.656-10.664h10.688v21.328h-32   c0-5.891-4.781-10.664-10.688-10.664c-5.875,0-10.656,4.773-10.656,10.664h-32V229.34z M480,272.004v10.656H32v-10.656H480z    M116.703,482.379c-1.07,2.188-3.164,2.969-4.766,2.969c-0.789,0-1.57-0.188-2.313-0.563c-1.625-0.797-2.352-2.094-2.672-3.031   c-0.32-0.953-0.539-2.422,0.266-4.047l6.742-13.703h11.789L116.703,482.379z M407.109,481.754   c-0.328,0.938-1.047,2.234-2.672,3.031c-0.734,0.375-1.516,0.563-2.313,0.563c-1.594,0-3.688-0.781-4.766-2.969l-9.047-18.375   h11.781l6.75,13.703C407.656,479.332,407.438,480.801,407.109,481.754z M416,442.66H96c-35.289,0-64-28.703-64-64v-74.656h448   v74.656C480,413.957,451.281,442.66,416,442.66z"></path><path d="M149.328,165.332c-5.875,0-10.656,4.781-10.656,10.672s4.781,10.664,10.656,10.664c5.906,0,10.672-4.773,10.672-10.664   S155.234,165.332,149.328,165.332z"></path><path d="M192,165.332c-5.891,0-10.672,4.781-10.672,10.672s4.781,10.664,10.672,10.664s10.672-4.773,10.672-10.664   S197.891,165.332,192,165.332z"></path><path d="M224,176.004c0,5.891,4.766,10.664,10.672,10.664c5.875,0,10.656-4.773,10.656-10.664s-4.781-10.672-10.656-10.672   C228.766,165.332,224,170.113,224,176.004z"></path><path d="M128,208.004c-5.891,0-10.664,4.773-10.664,10.664s4.773,10.664,10.664,10.664s10.672-4.773,10.672-10.664   S133.891,208.004,128,208.004z"></path><path d="M170.672,229.332c5.875,0,10.656-4.773,10.656-10.664s-4.781-10.664-10.656-10.664c-5.906,0-10.672,4.773-10.672,10.664   S164.766,229.332,170.672,229.332z"></path><path d="M213.328,229.332c5.891,0,10.672-4.773,10.672-10.664s-4.781-10.664-10.672-10.664s-10.656,4.773-10.656,10.664   S207.438,229.332,213.328,229.332z"></path><path d="M256,229.332c5.891,0,10.672-4.773,10.672-10.664s-4.781-10.664-10.672-10.664s-10.672,4.773-10.672,10.664   S250.109,229.332,256,229.332z"></path><path d="M458.656,314.66c-5.875,0-10.656,4.781-10.656,10.688v53.313c0,17.656-14.359,32-32,32   c-5.891,0-10.656,4.781-10.656,10.688c0,5.875,4.766,10.656,10.656,10.656c29.453,0,53.344-23.875,53.344-53.344v-53.313   C469.344,319.441,464.563,314.66,458.656,314.66z"></path></g></svg></g></g></svg>