<svg xmlns="http://www.w3.org/2000/svg" xmlns:xlink="http://www.w3.org/1999/xlink" width="100" height="100" viewBox="0 0 100 100"><g><circle stroke="none" fill="#fcfdff" r="48%" cx="50%" cy="50%"></circle><g transform="translate(50 50) scale(0.69 0.69) rotate(0) translate(-50 -50)" style="fill:#7a8cbd"><svg fill="#7a8cbd" xmlns:dc="http://purl.org/dc/elements/1.1/" xmlns:cc="http://creativecommons.org/ns#" xmlns:rdf="http://www.w3.org/1999/02/22-rdf-syntax-ns#" xmlns:svg="http://www.w3.org/2000/svg" xmlns="http://www.w3.org/2000/svg" xmlns:sodipodi="http://sodipodi.sourceforge.net/DTD/sodipodi-0.dtd" xmlns:inkscape="http://www.inkscape.org/namespaces/inkscape" viewBox="0 0 32 32.000001" version="1.1" x="0px" y="0px"><g transform="translate(0,-1020.3622)"><path style="opacity:1;fill:#7a8cbd;fill-opacity:1;stroke:none;stroke-width:0.99999988;stroke-linecap:butt;stroke-linejoin:round;stroke-miterlimit:4;stroke-dasharray:none;stroke-opacity:1" d="m 17.124696,1020.8622 a 1.9117234,1.9047517 0 0 1 1.911719,1.9047 h 2.809678 a 1.9117234,1.9047517 0 0 1 1.491672,-0.7143 1.9117234,1.9047517 0 0 1 1.911718,1.9048 1.9117234,1.9047517 0 0 1 -1.911718,1.9048 1.9117234,1.9047517 0 0 1 -1.489782,-0.7143 h -9.446612 a 1.9117234,1.9047517 0 0 1 -1.489781,0.7143 1.9117234,1.9047517 0 0 1 -1.9117199,-1.9048 1.9117234,1.9047517 0 0 1 1.9117199,-1.9048 1.9117234,1.9047517 0 0 1 1.491671,0.7143 h 2.809678 a 1.9117234,1.9047517 0 0 1 1.911757,-1.9047 z"></path><path d="m 15.875273,1026.6126 v 2.5 h -0.749984 c -1.3854,0 -2.501905,1.1147 -2.501905,2.5 v 0.752 h -1.498008 c -3.9700844,0 -7.2498434,3.28 -7.2498434,7.25 v 2.998 h 5.499881 v -2.998 c -10e-6,-1.0174 0.7326044,-1.75 1.7499624,-1.75 H 28.5 v -5.5 h -6.872901 v -0.752 c 0,-1.3853 -1.116466,-2.5 -2.501896,-2.5 h -0.749984 v -2.5 z" style="color:#000000;font-style:normal;font-variant:normal;font-weight:normal;font-stretch:normal;font-size:medium;line-height:normal;font-family:sans-serif;font-variant-ligatures:normal;font-variant-position:normal;font-variant-caps:normal;font-variant-numeric:normal;font-variant-alternates:normal;font-feature-settings:normal;text-indent:0;text-align:start;text-decoration:none;text-decoration-line:none;text-decoration-style:solid;text-decoration-color:#000000;letter-spacing:normal;word-spacing:normal;text-transform:none;writing-mode:lr-tb;direction:ltr;text-orientation:mixed;dominant-baseline:auto;baseline-shift:baseline;text-anchor:start;white-space:normal;shape-padding:0;clip-rule:nonzero;display:inline;overflow:visible;visibility:visible;opacity:1;isolation:auto;mix-blend-mode:normal;color-interpolation:sRGB;color-interpolation-filters:linearRGB;solid-color:#000000;solid-opacity:1;vector-effect:none;fill:#7a8cbd;fill-opacity:1;fill-rule:nonzero;stroke:none;stroke-width:0.99999988;stroke-linecap:butt;stroke-linejoin:round;stroke-miterlimit:4;stroke-dasharray:none;stroke-dashoffset:0;stroke-opacity:1;color-rendering:auto;image-rendering:auto;shape-rendering:auto;text-rendering:auto;enable-background:accumulate"></path><path style="" d="m 8.9998323,1047.737 0.6250069,0.625 0.6249698,-0.625 -0.6249698,-0.625 z" fill="#7a8cbd" stroke="none"></path><path style="" d="m 5.999935,1047.737 0.6249692,0.625 0.6249691,-0.625 -0.6249691,-0.625 z" fill="#7a8cbd" stroke="none"></path><path d="m 3,1047.7371 0.6249692,0.625 0.6249691,-0.625 -0.6249691,-0.625 z" style="" fill="#7a8cbd" stroke="none"></path><path d="m 7.4998837,1049.7371 0.6250068,0.625 0.6249692,-0.625 -0.6249692,-0.625 z" style="" fill="#7a8cbd" stroke="none"></path><path d="m 4.4999486,1049.7373 0.6249692,0.6249 0.625007,-0.6249 -0.625007,-0.6251 z" style="" fill="#7a8cbd" stroke="none"></path><path style="" d="m 5.999935,1051.7372 0.6249692,-0.625 0.6249691,0.625 -0.6249691,0.625 z" fill="#7a8cbd" stroke="none"></path><path d="m 9.6248392,1043.612 h -5.99987 c -0.2770334,0 -0.5000207,0.223 -0.5000207,0.5 v 1.5 c 0,0.2771 0.2229873,0.5 0.5000207,0.5 h 5.99987 c 0.277033,0 0.4999838,-0.2229 0.4999838,-0.5 v -1.5 c 0,-0.277 -0.2229878,-0.5 -0.4999838,-0.5 z" style="opacity:1;fill:#7a8cbd;fill-opacity:1;stroke:none;stroke-width:0.99999988;stroke-linecap:round;stroke-linejoin:round;stroke-miterlimit:4;stroke-dasharray:none;stroke-opacity:1"></path></g></svg></g></g></svg>