<svg fill="#8296D2" xmlns="http://www.w3.org/2000/svg" xmlns:xlink="http://www.w3.org/1999/xlink" version="1.1" x="0px" y="0px" viewBox="0 0 100 100" style="enable-background:new 0 0 100 100;" xml:space="preserve"><path d="M90.4867554,47.2636719H92.84375c0.7114258,0,1.3818359-0.3125,1.8393555-0.8574219  c0.4570312-0.5439453,0.6489258-1.2578125,0.5263672-1.9570312c-0.5976562-3.4248047-3.5551758-5.9101562-7.0317383-5.9101562  H16.5488281v-8.2509766c0-2.0888672,1.6992188-3.7880859,3.7880859-3.7880859c1.5258789,0,2.8964844,0.9082031,3.4912109,2.3134766  c0.3227539,0.7636719,1.2011719,1.1181641,1.9658203,0.7978516c0.7626953-0.3232422,1.1196289-1.203125,0.796875-1.9658203  C25.5258789,25.1269531,23.0708008,23.5,20.3369141,23.5c-3.7431641,0-6.7880859,3.0449219-6.7880859,6.7880859v8.2509766  h-1.7265625c-3.4765625,0-6.434082,2.4853516-7.0317383,5.9091797c-0.1225586,0.7001953,0.0693359,1.4140625,0.5263672,1.9580078  c0.4575195,0.5449219,1.1279297,0.8574219,1.8393555,0.8574219h2.3569946l4.7157593,17.015625  c0.3255005,1.1745605,0.7874146,2.2830811,1.348999,3.3251343c-1.9069214,0.8179932-3.9520264,2.6141968-3.9520264,6.0039673  c0,4.0224609-1.8066406,4.359375-3.5,4.359375c-0.8286133,0-1.5,0.671875-1.5,1.5s0.6713867,1.5,1.5,1.5  c2.965332,0,6.5-1.2763672,6.5-7.359375c0-2.361145,1.6711426-3.1685181,2.6575928-3.4404907  c3.0075684,3.6777344,7.5705566,5.9619751,12.5255127,5.9619751H70.190918c4.9304199,0,9.4710083-2.2633667,12.4790039-5.9091187  c0.9645996,0.3149414,2.496582,1.1633301,2.496582,3.3876343c0,6.0830078,3.534668,7.359375,6.5,7.359375  c0.8286133,0,1.5-0.671875,1.5-1.5s-0.6713867-1.5-1.5-1.5c-1.6933594,0-3.5-0.3369141-3.5-4.359375  c0-3.289917-1.9263916-5.0792847-3.7828979-5.9299316c0.5800171-1.0629883,1.0542603-2.1970825,1.3873901-3.3991699  L90.4867554,47.2636719z M11.8222656,41.5390625h76.3554688c1.769043,0,3.3061523,1.1103516,3.8901367,2.7246094h-2.7216797  H10.6538086H7.9321289C8.515625,42.6494141,10.0527344,41.5390625,11.8222656,41.5390625z M70.190918,73.1298828H29.809082  c-5.8959961,0-11.1142578-3.96875-12.6894531-9.6513672l-4.4936523-16.2148438h74.7480469l-4.4936523,16.2148438  C81.3051758,69.1611328,76.0869141,73.1298828,70.190918,73.1298828z"></path></svg>