<svg fill="#8296D2" xmlns="http://www.w3.org/2000/svg" viewBox="0 0 64 64" x="0px" y="0px"><path d="M55,57V3a1,1,0,0,0-1-1H10A1,1,0,0,0,9,3V57a1,1,0,0,0,1,1h2v3a1,1,0,0,0,1,1h4a1,1,0,0,0,1-1V58H46v3a1,1,0,0,0,1,1h4a1,1,0,0,0,1-1V58h2A1,1,0,0,0,55,57ZM16,60H14V58h2Zm34,0H48V58h2Zm3-4H11V4H53Z"></path><path d="M14,54H50a1,1,0,0,0,1-1V11a1,1,0,0,0-1-1H14a1,1,0,0,0-1,1V53A1,1,0,0,0,14,54Zm1-2V50H49v2ZM42.542,24l.363,4H37.1l.363-4Zm-4.9-2,.273-3h4.174l.273,3Zm7.273,6-.363-4H49v4Zm-9.826,0H30.274a8,8,0,0,0,2.463-4H35.45ZM20,22H19a6,6,0,0,1,12,0H22a3,3,0,0,1,3-3V17A5.006,5.006,0,0,0,20,22Zm7.22,2A2.985,2.985,0,0,1,25,25v2a5,5,0,0,0,4.576-3H30.65a5.99,5.99,0,0,1-11.3,0Zm-7.494,4H15V24h2.263A8,8,0,0,0,19.726,28ZM36,30H49V42H47V41a5.006,5.006,0,0,0-5-5,1,1,0,0,0-1,1v.026A4.948,4.948,0,0,0,38,36a1,1,0,0,0-1,1v.026A4.948,4.948,0,0,0,34,36a1,1,0,0,0-1,1v5H31V37a5.006,5.006,0,0,0-5-5,1,1,0,0,0-1,1v.026A4.948,4.948,0,0,0,22,32a1,1,0,0,0-1,1v.026A4.948,4.948,0,0,0,18,32a1,1,0,0,0-1,1v9H15V30ZM29.974,48A4.948,4.948,0,0,0,31,45V44h2v4ZM19,44h2v1a3.006,3.006,0,0,1-2,2.829Zm4-7V34.171A3.006,3.006,0,0,1,25,37v5H23Zm4,0V34.171A3.006,3.006,0,0,1,29,37v5H27Zm0,8V44h2v1a3.006,3.006,0,0,1-2,2.829Zm-4,0V44h2v1a3.006,3.006,0,0,1-2,2.829Zm-2-3H19V34.171A3.006,3.006,0,0,1,21,37Zm18-1V38.171A3.006,3.006,0,0,1,41,41v1H39Zm4,0V38.171A3.006,3.006,0,0,1,45,41v1H43Zm0,4V44h2v1a3.006,3.006,0,0,1-2,2.829Zm-4,0V44h2v1a3.006,3.006,0,0,1-2,2.829Zm-2-3H35V38.171A3.006,3.006,0,0,1,37,41Zm0,2v1a3.006,3.006,0,0,1-2,2.829V44Zm10,1V44h2v4H45.974A4.948,4.948,0,0,0,47,45ZM17,44v4H15V44ZM49,12V22H44.368L44,17.909A1,1,0,0,0,43,17H37a1,1,0,0,0-1,.909L35.632,22H33a8,8,0,0,0-16,0H15V12Z"></path><rect x="43" y="6" width="2" height="2"></rect><rect x="27" y="6" width="10" height="2"></rect><rect x="39" y="6" width="2" height="2"></rect><rect x="23" y="6" width="2" height="2"></rect><rect x="19" y="6" width="2" height="2"></rect></svg>