<svg id="Layer_1" data-name="Layer 1" xmlns="http://www.w3.org/2000/svg" viewBox="0 0 403.5 196.81"><defs><style>.cls-1{fill:#4472d8;}.cls-1,.cls-2{opacity:0.38;}.cls-2{fill:#34c8ff;}</style></defs><title>drops</title><path class="cls-1" d="M292.71,108.23a7.09,7.09,0,1,0,14.18,0c0-3.93-7.09-14.15-7.09-14.15S292.71,104.33,292.71,108.23Zm12.27-1.3a.88.88,0,1,1-.88-.88A.89.89,0,0,1,305,106.93Zm-5.18,5.63a.86.86,0,0,1,.69-.85,3.57,3.57,0,0,0,2.71-2.52.87.87,0,0,1,.85-.67h0a.88.88,0,0,1,.85,1.12,5.35,5.35,0,0,1-4.06,3.8.86.86,0,0,1-1-.88Z" transform="translate(-15.31 18.91)"/><path class="cls-1" d="M288.27,60a13.49,13.49,0,0,0,27,0c0-7.48-13.48-26.92-13.48-26.92S288.27,52.6,288.27,60Zm23.34-2.48a1.67,1.67,0,1,1-1.67-1.66A1.69,1.69,0,0,1,311.61,57.55Zm-9.85,10.71a1.63,1.63,0,0,1,1.31-1.62,6.71,6.71,0,0,0,5.15-4.79,1.68,1.68,0,0,1,1.62-1.27h0a1.68,1.68,0,0,1,1.62,2.13,10.16,10.16,0,0,1-7.73,7.22,1.63,1.63,0,0,1-2-1.67Z" transform="translate(-15.31 18.91)"/><path class="cls-2" d="M343.86,43.74c0,7.2,6.6,13,14.7,13s14.7-5.79,14.7-13-14.7-25.95-14.7-25.95S343.86,36.58,343.86,43.74Zm25.43-2.39a1.83,1.83,0,1,1-1.81-1.6A1.73,1.73,0,0,1,369.29,41.35ZM358.56,51.67A1.63,1.63,0,0,1,360,50.11a7,7,0,0,0,5.62-4.62,1.79,1.79,0,0,1,1.76-1.22h0a1.66,1.66,0,0,1,1.76,2,10.62,10.62,0,0,1-8.42,7,1.72,1.72,0,0,1-2.15-1.61Z" transform="translate(-15.31 18.91)"/><path class="cls-2" d="M278.46,7.59a7.32,7.32,0,0,0,14.64,0C293.1,3.53,285.78-7,285.78-7S278.46,3.56,278.46,7.59Zm12.67-1.35a.91.91,0,1,1-1.81,0,.91.91,0,0,1,1.81,0Zm-5.35,5.82a.88.88,0,0,1,.71-.88,3.67,3.67,0,0,0,2.8-2.61.9.9,0,0,1,.88-.68h0A.9.9,0,0,1,291,9,5.49,5.49,0,0,1,286.85,13a.88.88,0,0,1-1.07-.9Z" transform="translate(-15.31 18.91)"/><path class="cls-1" d="M246,67.48a7.09,7.09,0,0,0,14.18,0c0-3.93-7.09-14.15-7.09-14.15S246,63.58,246,67.48Zm12.26-1.3a.88.88,0,1,1-.87-.87A.88.88,0,0,1,258.26,66.18Zm-5.17,5.63a.86.86,0,0,1,.69-.85,3.55,3.55,0,0,0,2.71-2.52.87.87,0,0,1,.85-.67h0a.89.89,0,0,1,.85,1.12,5.36,5.36,0,0,1-4.07,3.8.85.85,0,0,1-1-.88Z" transform="translate(-15.31 18.91)"/><path class="cls-1" d="M380.78,35.6a13.49,13.49,0,0,0,27,0c0-7.47-13.49-26.92-13.49-26.92S380.78,28.18,380.78,35.6Zm23.34-2.47a1.67,1.67,0,1,1-1.67-1.67A1.68,1.68,0,0,1,404.12,33.13Zm-9.85,10.7a1.63,1.63,0,0,1,1.31-1.61,6.77,6.77,0,0,0,5.16-4.8,1.65,1.65,0,0,1,1.61-1.26h0A1.68,1.68,0,0,1,404,38.28a10.16,10.16,0,0,1-7.73,7.22,1.63,1.63,0,0,1-2-1.67Z" transform="translate(-15.31 18.91)"/><path class="cls-2" d="M334.94,139.41c0,7.2,6.61,13,14.7,13s14.7-5.79,14.7-13-14.7-25.95-14.7-25.95S334.94,132.25,334.94,139.41ZM360.37,137a1.83,1.83,0,1,1-1.81-1.61A1.73,1.73,0,0,1,360.37,137Zm-10.73,10.32a1.63,1.63,0,0,1,1.43-1.56,7,7,0,0,0,5.62-4.62,1.79,1.79,0,0,1,1.76-1.22h0a1.66,1.66,0,0,1,1.76,2.05,10.62,10.62,0,0,1-8.42,7,1.72,1.72,0,0,1-2.15-1.61Z" transform="translate(-15.31 18.91)"/><path class="cls-1" d="M284.39,17a9.59,9.59,0,1,0,19.18,0c0-5.32-9.59-19.15-9.59-19.15S284.39,11.75,284.39,17ZM301,15.27a1.19,1.19,0,1,1-1.19-1.19A1.2,1.2,0,0,1,301,15.27Zm-7,7.62a1.15,1.15,0,0,1,.93-1.15,4.81,4.81,0,0,0,3.67-3.42,1.18,1.18,0,0,1,1.15-.89h0a1.19,1.19,0,0,1,1.15,1.5,7.22,7.22,0,0,1-5.5,5.14,1.15,1.15,0,0,1-1.4-1.18Z" transform="translate(-15.31 18.91)"/><path class="cls-2" d="M176.6,136a14.65,14.65,0,1,0,29.29,0c0-8.12-14.64-29.23-14.64-29.23S176.6,128,176.6,136Zm25.34-2.69a1.81,1.81,0,1,1-1.81-1.81A1.82,1.82,0,0,1,201.94,133.35ZM191.25,145a1.76,1.76,0,0,1,1.42-1.75,7.33,7.33,0,0,0,5.6-5.21,1.81,1.81,0,0,1,1.75-1.38h0a1.82,1.82,0,0,1,1.76,2.31,11,11,0,0,1-8.39,7.84,1.76,1.76,0,0,1-2.14-1.81Z" transform="translate(-15.31 18.91)"/><path class="cls-1" d="M126.71,37a7.09,7.09,0,1,0,14.18,0c0-3.93-7.09-14.15-7.09-14.15S126.71,33.07,126.71,37ZM139,35.67a.88.88,0,1,1-.88-.88A.89.89,0,0,1,139,35.67ZM133.8,41.3a.85.85,0,0,1,.69-.85,3.57,3.57,0,0,0,2.71-2.52.87.87,0,0,1,.85-.67h0a.88.88,0,0,1,.85,1.12,5.34,5.34,0,0,1-4.07,3.8.86.86,0,0,1-1-.88Z" transform="translate(-15.31 18.91)"/><path class="cls-1" d="M95.1,127.7a7.09,7.09,0,1,0,14.18,0c0-3.93-7.09-14.15-7.09-14.15S95.1,123.8,95.1,127.7Zm12.27-1.3a.88.88,0,1,1-.88-.87A.89.89,0,0,1,107.37,126.4ZM102.19,132a.86.86,0,0,1,.69-.85,3.55,3.55,0,0,0,2.71-2.52.87.87,0,0,1,.85-.66h0a.88.88,0,0,1,.85,1.11,5.36,5.36,0,0,1-4.07,3.8.85.85,0,0,1-1-.88Z" transform="translate(-15.31 18.91)"/><path class="cls-1" d="M229.88,95.82a13.49,13.49,0,0,0,27,0c0-7.47-13.49-26.92-13.49-26.92S229.88,88.4,229.88,95.82Zm23.34-2.47a1.67,1.67,0,1,1-1.67-1.67A1.68,1.68,0,0,1,253.22,93.35Zm-9.85,10.7a1.63,1.63,0,0,1,1.31-1.61,6.77,6.77,0,0,0,5.16-4.8,1.65,1.65,0,0,1,1.61-1.26h0a1.68,1.68,0,0,1,1.62,2.12,10.16,10.16,0,0,1-7.73,7.22,1.63,1.63,0,0,1-2-1.67Z" transform="translate(-15.31 18.91)"/><path class="cls-2" d="M258.23,130.65c0,7.2,6.61,13,14.7,13s14.7-5.79,14.7-13-14.7-25.95-14.7-25.95S258.23,123.49,258.23,130.65Zm25.44-2.39a1.83,1.83,0,1,1-1.82-1.61A1.74,1.74,0,0,1,283.67,128.26Zm-10.74,10.32a1.64,1.64,0,0,1,1.43-1.56A7.06,7.06,0,0,0,280,132.4a1.8,1.8,0,0,1,1.76-1.22h0a1.66,1.66,0,0,1,1.76,2,10.62,10.62,0,0,1-8.42,7,1.73,1.73,0,0,1-2.15-1.61Z" transform="translate(-15.31 18.91)"/><path class="cls-1" d="M133.49,77.25a9.59,9.59,0,1,0,19.18,0c0-5.32-9.59-19.15-9.59-19.15S133.49,72,133.49,77.25Zm16.6-1.76a1.19,1.19,0,1,1-1.19-1.18A1.2,1.2,0,0,1,150.09,75.49Zm-7,7.62A1.15,1.15,0,0,1,144,82a4.81,4.81,0,0,0,3.67-3.42,1.19,1.19,0,0,1,1.15-.89h0a1.19,1.19,0,0,1,1.15,1.5,7.22,7.22,0,0,1-5.5,5.14,1.15,1.15,0,0,1-1.4-1.18Z" transform="translate(-15.31 18.91)"/><path class="cls-2" d="M220.07,43.38a7.32,7.32,0,0,0,14.64,0c0-4.06-7.32-14.62-7.32-14.62S220.07,39.35,220.07,43.38ZM232.74,42a.91.91,0,1,1-.91-.91A.91.91,0,0,1,232.74,42Zm-5.35,5.81a.88.88,0,0,1,.71-.88,3.66,3.66,0,0,0,2.8-2.6.9.9,0,0,1,.88-.69h0a.91.91,0,0,1,.88,1.15,5.5,5.5,0,0,1-4.2,3.92.88.88,0,0,1-1.07-.9Z" transform="translate(-15.31 18.91)"/><path class="cls-2" d="M173.82,82a8,8,0,1,0,16.07,0c0-4.45-8-16-8-16S173.82,77.62,173.82,82Zm13.9-1.47a1,1,0,0,1-2,0,1,1,0,1,1,2,0ZM181.85,87a1,1,0,0,1,.78-1,4,4,0,0,0,3.07-2.86,1,1,0,0,1,1-.75h0a1,1,0,0,1,1,1.27,6.05,6.05,0,0,1-4.61,4.3,1,1,0,0,1-1.17-1Z" transform="translate(-15.31 18.91)"/><path class="cls-1" d="M145.46,132.91a7.09,7.09,0,1,0,14.18,0c0-3.93-7.09-14.15-7.09-14.15S145.46,129,145.46,132.91Zm12.27-1.3a.88.88,0,1,1-.88-.87A.89.89,0,0,1,157.73,131.61Zm-5.18,5.63a.86.86,0,0,1,.69-.85,3.55,3.55,0,0,0,2.71-2.52.87.87,0,0,1,.85-.66h0a.88.88,0,0,1,.85,1.11,5.36,5.36,0,0,1-4.07,3.8.85.85,0,0,1-1-.88Z" transform="translate(-15.31 18.91)"/><path class="cls-1" d="M368.7,168.3a9.59,9.59,0,1,0,19.18,0c0-5.31-9.59-19.14-9.59-19.14S368.7,163,368.7,168.3Zm16.59-1.76a1.19,1.19,0,1,1-1.18-1.18A1.19,1.19,0,0,1,385.29,166.54Zm-7,7.62a1.16,1.16,0,0,1,.93-1.15,4.81,4.81,0,0,0,3.67-3.41,1.18,1.18,0,0,1,1.15-.9h0a1.19,1.19,0,0,1,1.15,1.51,7.24,7.24,0,0,1-5.5,5.14,1.16,1.16,0,0,1-1.4-1.19Z" transform="translate(-15.31 18.91)"/><path class="cls-2" d="M261.56,42.61a10.73,10.73,0,0,0,21.45,0c0-6-10.73-21.42-10.73-21.42S261.56,36.7,261.56,42.61Zm18.56-2a1.33,1.33,0,1,1-1.33-1.33A1.34,1.34,0,0,1,280.12,40.64Zm-7.84,8.52a1.29,1.29,0,0,1,1.05-1.29,5.38,5.38,0,0,0,4.1-3.82,1.32,1.32,0,0,1,1.28-1h0A1.34,1.34,0,0,1,280,44.74a8.08,8.08,0,0,1-6.15,5.74,1.3,1.3,0,0,1-1.57-1.32Z" transform="translate(-15.31 18.91)"/><path class="cls-1" d="M118.68,78a7.09,7.09,0,0,0,14.18,0c0-3.93-7.09-14.15-7.09-14.15S118.68,74.07,118.68,78ZM131,76.67a.88.88,0,1,1-1.75,0,.88.88,0,0,1,1.75,0Zm-5.18,5.63a.86.86,0,0,1,.69-.85,3.55,3.55,0,0,0,2.71-2.52.87.87,0,0,1,.85-.66h0a.88.88,0,0,1,.85,1.11,5.35,5.35,0,0,1-4.06,3.8.86.86,0,0,1-1-.88Z" transform="translate(-15.31 18.91)"/><path class="cls-1" d="M221.86,136.82a13.49,13.49,0,1,0,27,0c0-7.47-13.49-26.92-13.49-26.92S221.86,129.4,221.86,136.82Zm23.33-2.47a1.67,1.67,0,1,1-1.66-1.67A1.68,1.68,0,0,1,245.19,134.35Zm-9.85,10.71a1.64,1.64,0,0,1,1.32-1.62,6.76,6.76,0,0,0,5.15-4.8,1.66,1.66,0,0,1,1.61-1.26h0A1.67,1.67,0,0,1,245,139.5a10.14,10.14,0,0,1-7.73,7.22,1.62,1.62,0,0,1-2-1.66Z" transform="translate(-15.31 18.91)"/><path class="cls-1" d="M125.46,118.25a9.59,9.59,0,1,0,19.18,0c0-5.31-9.59-19.14-9.59-19.14S125.46,113,125.46,118.25Zm16.6-1.76a1.19,1.19,0,1,1-1.19-1.18A1.2,1.2,0,0,1,142.06,116.49Zm-7,7.62A1.16,1.16,0,0,1,136,123a4.8,4.8,0,0,0,3.66-3.41,1.18,1.18,0,0,1,1.15-.9h0a1.19,1.19,0,0,1,1.15,1.51,7.21,7.21,0,0,1-5.5,5.13,1.16,1.16,0,0,1-1.4-1.18Z" transform="translate(-15.31 18.91)"/><path class="cls-2" d="M212,84.38a7.32,7.32,0,1,0,14.64,0c0-4.06-7.32-14.62-7.32-14.62S212,80.35,212,84.38ZM224.71,83a.91.91,0,1,1-.9-.91A.91.91,0,0,1,224.71,83Zm-5.35,5.81a.89.89,0,0,1,.72-.88,3.63,3.63,0,0,0,2.79-2.6.92.92,0,0,1,.88-.69h0a.91.91,0,0,1,.88,1.15,5.52,5.52,0,0,1-4.2,3.93.89.89,0,0,1-1.07-.91Z" transform="translate(-15.31 18.91)"/><path class="cls-2" d="M322,76.75c0,3.6,3.31,6.5,7.35,6.5s7.35-2.9,7.35-6.5-7.35-13-7.35-13S322,73.17,322,76.75Zm12.72-1.19a.91.91,0,1,1-.91-.8A.86.86,0,0,1,334.67,75.56Zm-5.37,5.16a.82.82,0,0,1,.72-.78,3.52,3.52,0,0,0,2.81-2.31.89.89,0,0,1,.88-.61h0a.83.83,0,0,1,.88,1,5.31,5.31,0,0,1-4.21,3.48.87.87,0,0,1-1.08-.8Z" transform="translate(-15.31 18.91)"/><path class="cls-2" d="M389.42,117.58c0,7.21,6.61,13,14.7,13s14.7-5.79,14.7-13-14.7-25.94-14.7-25.94S389.42,110.43,389.42,117.58Zm25.44-2.38a1.83,1.83,0,1,1-1.82-1.61A1.74,1.74,0,0,1,414.86,115.2Zm-10.74,10.32a1.63,1.63,0,0,1,1.43-1.56,7.08,7.08,0,0,0,5.62-4.62,1.79,1.79,0,0,1,1.76-1.22h0a1.66,1.66,0,0,1,1.76,2,10.6,10.6,0,0,1-8.42,7,1.72,1.72,0,0,1-2.15-1.6Z" transform="translate(-15.31 18.91)"/><path class="cls-1" d="M350.27,93.88a9.6,9.6,0,0,0,19.19,0c0-5.32-9.59-19.15-9.59-19.15S350.27,88.6,350.27,93.88Zm16.6-1.76a1.19,1.19,0,1,1-1.18-1.18A1.2,1.2,0,0,1,366.87,92.12Zm-7,7.62a1.15,1.15,0,0,1,.93-1.15,4.78,4.78,0,0,0,3.66-3.42,1.19,1.19,0,0,1,1.15-.89h0a1.18,1.18,0,0,1,1.15,1.5,7.21,7.21,0,0,1-5.49,5.14,1.15,1.15,0,0,1-1.4-1.18Z" transform="translate(-15.31 18.91)"/><path class="cls-1" d="M211.93,33.81a13.49,13.49,0,0,0,27,0c0-7.48-13.49-26.92-13.49-26.92S211.93,26.38,211.93,33.81Zm23.33-2.48a1.67,1.67,0,1,1-1.67-1.66A1.69,1.69,0,0,1,235.26,31.33ZM225.41,42a1.62,1.62,0,0,1,1.32-1.61,6.77,6.77,0,0,0,5.15-4.8,1.67,1.67,0,0,1,1.61-1.27h0a1.68,1.68,0,0,1,1.62,2.13,10.16,10.16,0,0,1-7.73,7.22,1.63,1.63,0,0,1-2-1.67Z" transform="translate(-15.31 18.91)"/><path class="cls-1" d="M169.65,41.26a7.09,7.09,0,0,0,14.18,0c0-3.93-7.09-14.15-7.09-14.15S169.65,37.36,169.65,41.26ZM181.92,40a.88.88,0,1,1-1.75,0,.88.88,0,0,1,1.75,0Zm-5.18,5.63a.86.86,0,0,1,.69-.85,3.55,3.55,0,0,0,2.71-2.52.88.88,0,0,1,.85-.67h0a.88.88,0,0,1,.85,1.12,5.35,5.35,0,0,1-4.06,3.8.86.86,0,0,1-1-.88Z" transform="translate(-15.31 18.91)"/><path class="cls-2" d="M198.21,159.35a10.73,10.73,0,1,0,21.45,0c0-5.95-10.73-21.41-10.73-21.41S198.21,153.44,198.21,159.35Zm18.56-2a1.33,1.33,0,1,1-1.33-1.33A1.34,1.34,0,0,1,216.77,157.38Zm-7.84,8.52a1.31,1.31,0,0,1,1-1.29,5.36,5.36,0,0,0,4.1-3.81,1.32,1.32,0,0,1,1.28-1h0a1.33,1.33,0,0,1,1.29,1.69,8.07,8.07,0,0,1-6.15,5.74,1.29,1.29,0,0,1-1.57-1.32Z" transform="translate(-15.31 18.91)"/><path class="cls-1" d="M293.63,142.16a9.6,9.6,0,0,0,19.19,0c0-5.32-9.59-19.15-9.59-19.15S293.63,136.88,293.63,142.16Zm16.6-1.76a1.19,1.19,0,1,1-1.19-1.19A1.2,1.2,0,0,1,310.23,140.4Zm-7,7.61a1.16,1.16,0,0,1,.93-1.15,4.79,4.79,0,0,0,3.66-3.41,1.19,1.19,0,0,1,1.15-.9h0a1.19,1.19,0,0,1,1.15,1.51,7.22,7.22,0,0,1-5.49,5.14,1.16,1.16,0,0,1-1.4-1.19Z" transform="translate(-15.31 18.91)"/><path class="cls-2" d="M37.22,29c0,7.21,6.61,13,14.7,13s14.7-5.79,14.7-13S51.92,3,51.92,3,37.22,21.82,37.22,29Zm25.44-2.38a1.84,1.84,0,0,1-3.64,0,1.83,1.83,0,0,1,3.64,0ZM51.92,36.91a1.63,1.63,0,0,1,1.43-1.56A7.08,7.08,0,0,0,59,30.73a1.79,1.79,0,0,1,1.76-1.22h0a1.66,1.66,0,0,1,1.76,2,10.6,10.6,0,0,1-8.42,7,1.71,1.71,0,0,1-2.15-1.6Z" transform="translate(-15.31 18.91)"/><path class="cls-1" d="M74.15,20.84a13.49,13.49,0,0,0,27,0c0-7.48-13.49-26.92-13.49-26.92S74.15,13.41,74.15,20.84Zm23.33-2.48a1.67,1.67,0,1,1-1.67-1.67A1.69,1.69,0,0,1,97.48,18.36ZM87.63,29.07a1.64,1.64,0,0,1,1.31-1.62,6.74,6.74,0,0,0,5.16-4.8,1.66,1.66,0,0,1,1.61-1.26h0a1.68,1.68,0,0,1,1.62,2.12,10.15,10.15,0,0,1-7.73,7.23,1.63,1.63,0,0,1-2-1.67Z" transform="translate(-15.31 18.91)"/><path class="cls-2" d="M28.3,124.64c0,7.21,6.61,13,14.7,13s14.7-5.79,14.7-13S43,98.7,43,98.7,28.3,117.49,28.3,124.64Zm25.44-2.38a1.83,1.83,0,1,1-1.82-1.61A1.74,1.74,0,0,1,53.74,122.26ZM43,132.58A1.63,1.63,0,0,1,44.43,131a7.07,7.07,0,0,0,5.62-4.63,1.78,1.78,0,0,1,1.76-1.21h0a1.66,1.66,0,0,1,1.76,2,10.6,10.6,0,0,1-8.42,7,1.72,1.72,0,0,1-2.15-1.6Z" transform="translate(-15.31 18.91)"/><path class="cls-1" d="M62.06,153.54a9.59,9.59,0,1,0,19.18,0c0-5.32-9.59-19.15-9.59-19.15S62.06,148.26,62.06,153.54Zm16.6-1.76a1.19,1.19,0,1,1-1.19-1.19A1.2,1.2,0,0,1,78.66,151.78Zm-7,7.62a1.15,1.15,0,0,1,.93-1.15,4.8,4.8,0,0,0,3.67-3.42,1.18,1.18,0,0,1,1.15-.89h0a1.19,1.19,0,0,1,1.15,1.5,7.22,7.22,0,0,1-5.5,5.14,1.15,1.15,0,0,1-1.4-1.18Z" transform="translate(-15.31 18.91)"/><path class="cls-2" d="M15.31,62c0,3.6,3.31,6.5,7.36,6.5S30,65.59,30,62s-7.35-13-7.35-13S15.31,58.41,15.31,62ZM28,60.79a.91.91,0,1,1-.91-.8A.87.87,0,0,1,28,60.79ZM22.67,66a.8.8,0,0,1,.71-.77,3.55,3.55,0,0,0,2.81-2.32.91.91,0,0,1,.88-.61h0a.83.83,0,0,1,.88,1,5.31,5.31,0,0,1-4.21,3.48A.86.86,0,0,1,22.67,66Z" transform="translate(-15.31 18.91)"/><path class="cls-2" d="M82.78,102.82c0,7.2,6.61,13,14.7,13s14.7-5.8,14.7-13-14.7-25.95-14.7-25.95S82.78,95.66,82.78,102.82Zm25.44-2.39a1.84,1.84,0,1,1-1.82-1.6A1.74,1.74,0,0,1,108.22,100.43ZM97.48,110.75a1.62,1.62,0,0,1,1.43-1.55,7.07,7.07,0,0,0,5.62-4.63,1.79,1.79,0,0,1,1.76-1.22h0a1.67,1.67,0,0,1,1.76,2.05,10.62,10.62,0,0,1-8.42,7,1.73,1.73,0,0,1-2.15-1.61Z" transform="translate(-15.31 18.91)"/><path class="cls-1" d="M43.63,79.12a9.6,9.6,0,0,0,19.19,0C62.82,73.8,53.23,60,53.23,60S43.63,73.84,43.63,79.12Zm16.6-1.76a1.19,1.19,0,1,1-1.18-1.19A1.2,1.2,0,0,1,60.23,77.36Zm-7,7.61a1.16,1.16,0,0,1,.93-1.15,4.79,4.79,0,0,0,3.66-3.41,1.2,1.2,0,0,1,1.15-.9h0A1.19,1.19,0,0,1,60.12,81a7.19,7.19,0,0,1-5.49,5.14A1.16,1.16,0,0,1,53.23,85Z" transform="translate(-15.31 18.91)"/><path class="cls-2" d="M145,10.32a14.65,14.65,0,1,0,29.29,0c0-8.12-14.64-29.23-14.64-29.23S145,2.26,145,10.32Zm25.34-2.69a1.81,1.81,0,1,1-1.81-1.81A1.82,1.82,0,0,1,170.33,7.63ZM159.64,19.26a1.76,1.76,0,0,1,1.42-1.75,7.33,7.33,0,0,0,5.6-5.21,1.8,1.8,0,0,1,1.75-1.37h0a1.82,1.82,0,0,1,1.76,2.3,11,11,0,0,1-8.39,7.84,1.76,1.76,0,0,1-2.14-1.81Z" transform="translate(-15.31 18.91)"/></svg>