<svg fill="#8296D2" xmlns:dc="http://purl.org/dc/elements/1.1/" xmlns:cc="http://creativecommons.org/ns#" xmlns:rdf="http://www.w3.org/1999/02/22-rdf-syntax-ns#" xmlns:svg="http://www.w3.org/2000/svg" xmlns="http://www.w3.org/2000/svg" xmlns:sodipodi="http://sodipodi.sourceforge.net/DTD/sodipodi-0.dtd" xmlns:inkscape="http://www.inkscape.org/namespaces/inkscape" version="1.1" x="0px" y="0px" viewBox="0 0 100 100"><g transform="translate(0,-952.36218)"><g transform="translate(-24.007724,578.93265)"><g style="" transform="matrix(0.17659197,0,0,0.17659197,65.496774,429.71647)" fill="#8296D2" fill-opacity="1"><path style="" d="M 50.684,4 C 59,26 65.165,34.083 75.714,55.576 85.952,76.438 70.78,97.4 50.684,97.4 30.588,97.4 15.414,76.437 25.656,55.576 36.201,34.083 42,26 50.684,4 z" fill="#8296D2" fill-opacity="1"></path></g><g transform="translate(-1.7199017,-29.97543)"><path style="" d="m 39.354568,435.56773 c -0.58889,0 -1.0625,0.47361 -1.0625,1.0625 l 0,18.6875 c 0,0.58889 0.47361,1.0625 1.0625,1.0625 l 33.156245,0 3.84375,-9.5 3.46875,9.5 33.156247,0 c 0.58889,0 1.0625,-0.47361 1.0625,-1.0625 l 0,-18.6875 c 0,-0.58889 -0.47361,-1.0625 -1.0625,-1.0625 l -73.624992,0 z" fill="#8296D2" fill-opacity="1" stroke="none"></path><g transform="translate(-63.792921,71.218504)"><rect ry="2.648622" y="360.78696" x="180.04938" height="27.937031" width="5.2972441" style="" fill="#8296D2" fill-opacity="1" stroke="none"></rect><rect ry="2.6486223" y="360.78696" x="94.573372" height="27.937031" width="5.2972445" style="" fill="#8296D2" fill-opacity="1" stroke="none"></rect></g></g></g></g></svg>