<svg xmlns="http://www.w3.org/2000/svg" xmlns:xlink="http://www.w3.org/1999/xlink" width="100" height="100" viewBox="0 0 100 100"><g><circle stroke="none" fill="#fcfdff" r="48%" cx="50%" cy="50%"></circle><g transform="translate(50 50) scale(0.69 0.69) rotate(0) translate(-50 -50)" style="fill:#7a8cbd"><svg fill="#7a8cbd" xmlns="http://www.w3.org/2000/svg" xmlns:xlink="http://www.w3.org/1999/xlink" version="1.1" x="0px" y="0px" viewBox="0 0 512 512" enable-background="new 0 0 512 512" xml:space="preserve"><g><path d="M426.672,256c0-17.055-14.172-31.039-31.938-31.953c0-0.016,0-0.031,0-0.047V32c0-11.766-9.563-21.336-21.328-21.336   h-74.672C298.734,4.773,293.953,0,288.063,0h-64c-5.891,0-10.656,4.773-10.656,10.664H138.75c-11.766,0-21.344,9.57-21.344,21.336   v192c0,0.016,0,0.023,0,0.039C99.578,224.883,85.328,238.898,85.328,256c0,9.227,4.156,17.563,10.781,23.406   c0.609,36.563,17.656,73.438,47,101.484c5.391,5.141,11.063,9.875,16.969,14.203v95.563h-0.125   c-5.891,0-10.672,4.781-10.672,10.688c0,5.875,4.781,10.656,10.672,10.656h0.125h191.875h0.125l0,0   c5.828-0.063,10.547-4.813,10.547-10.656c0-5.859-4.719-10.609-10.547-10.672v-95.578c5.906-4.313,11.578-9.063,16.969-14.203   c29.375-28.078,46.422-65.016,47-101.625C422.578,273.422,426.672,265.156,426.672,256z M138.75,32h234.656l0.016,192h-0.016   H138.75V32z M119.109,245.336h19.641h234.656h19.484c6.859,0,12.438,4.781,12.438,10.664s-5.578,10.664-12.438,10.664H119.109   c-6.859,0-12.438-4.781-12.438-10.664S112.25,245.336,119.109,245.336z M330.734,490.656H181.406v-82.281   c19.844,10.313,41.563,16.453,64,17.938v43.031c0,5.875,4.781,10.656,10.672,10.656s10.656-4.781,10.656-10.656v-43.031   c22.453-1.484,44.172-7.625,64-17.938V490.656z M394.188,288c-2.922,27.938-17.094,55.672-39.891,77.469   c-26.891,25.703-61.781,39.875-98.219,39.875c-36.453,0-71.328-14.172-98.234-39.875c-22.797-21.797-36.969-49.531-39.875-77.469   h1.141h273.781H394.188z"></path><path d="M160.063,42.664c-5.891,0-10.656,4.781-10.656,10.672v149.328c0,5.891,4.766,10.672,10.656,10.672   s10.672-4.781,10.672-10.672V53.336C170.734,47.445,165.953,42.664,160.063,42.664z"></path></g></svg></g></g></svg>