<svg xmlns="http://www.w3.org/2000/svg" xmlns:xlink="http://www.w3.org/1999/xlink" width="100" height="100" viewBox="0 0 100 100"><g><circle stroke="none" fill="#fcfdff" r="48%" cx="50%" cy="50%"></circle><g transform="translate(50 50) scale(0.69 0.69) rotate(0) translate(-50 -50)" style="fill:#7a8cbd"><svg fill="#7a8cbd" xmlns:dc="http://purl.org/dc/elements/1.1/" xmlns:cc="http://creativecommons.org/ns#" xmlns:rdf="http://www.w3.org/1999/02/22-rdf-syntax-ns#" xmlns:svg="http://www.w3.org/2000/svg" xmlns="http://www.w3.org/2000/svg" xmlns:sodipodi="http://sodipodi.sourceforge.net/DTD/sodipodi-0.dtd" xmlns:inkscape="http://www.inkscape.org/namespaces/inkscape" viewBox="0 0 32 32.000001" version="1.1" x="0px" y="0px"><g transform="translate(0,-1020.3622)"><path style="opacity:1;fill:#7a8cbd;fill-opacity:1;stroke:none;stroke-width:1;stroke-linecap:butt;stroke-linejoin:round;stroke-miterlimit:4;stroke-dasharray:none;stroke-dashoffset:0;stroke-opacity:1" d="m 5.50002,1021.8622 c -0.554,0 -1,0.446 -1,1 v 4.5 h 16.5 v -5.5 z m 10,1.75 h 3 c 0.554,0 1,0.446 1,1 0,0.554 -0.446,1 -1,1 h -3 c -0.554,0 -1,-0.446 -1,-1 0,-0.554 0.446,-1 1,-1 z"></path><path style="opacity:1;fill:#7a8cbd;fill-opacity:1;stroke:none;stroke-width:1;stroke-linecap:butt;stroke-linejoin:round;stroke-miterlimit:4;stroke-dasharray:none;stroke-dashoffset:0;stroke-opacity:1" d="m 21.99807,1021.8622 v 5.5 h 5.50195 v -4.5 c 0,-0.554 -0.446,-1 -1,-1 z m 1.25195,1.248 h 0.9961 v 1.004 h -0.9961 z m 1.99414,0 h 1.00391 v 1.004 h -1.00391 z m -1.99414,2.0001 h 0.9961 v 1.0039 h -0.9961 z m 1.99414,0 h 1.00391 v 1.0039 h -1.00391 z"></path><path style="opacity:1;fill:#7a8cbd;fill-opacity:1;stroke:none;stroke-width:1;stroke-linecap:butt;stroke-linejoin:round;stroke-miterlimit:4;stroke-dasharray:none;stroke-dashoffset:0;stroke-opacity:1" d="m 4.50002,1028.3661 v 19.9961 h 23 v -19.9961 z m 3.00196,2.002 a 1.0007612,1.0007612 0 0 1 1.00195,1 1.0007612,1.0007612 0 0 1 -1.00195,1.0019 1.0007612,1.0007612 0 0 1 -1,-1.0019 1.0007612,1.0007612 0 0 1 1,-1 z m 8.49804,0.4941 a 7.5003397,7.5008953 0 0 1 7.5,7.502 7.5003397,7.5008953 0 0 1 -7.5,7.5 7.5003397,7.5008953 0 0 1 -7.5,-7.5 7.5003397,7.5008953 0 0 1 7.5,-7.502 z"></path><path style="opacity:1;fill:#7a8cbd;fill-opacity:1;stroke:none;stroke-width:1;stroke-linecap:butt;stroke-linejoin:round;stroke-miterlimit:4;stroke-dasharray:none;stroke-dashoffset:0;stroke-opacity:1" d="m 4.50002,1049.3603 v 0.5019 c 0,0.554 0.446,1 1,1 h 21 c 0.554,0 1,-0.446 1,-1 v -0.5019 z"></path><path d="m 11.74416,1038.9159 c -0.14286,0.1036 -0.20853,0.1639 -0.48632,0.332 -0.40215,0.2439 -0.87032,0.5033 -1.38477,0.5801 a 6.2499997,6.2499997 0 0 0 6.06836,4.7852 6.2499997,6.2499997 0 0 0 6.06836,-4.7852 c -0.51262,-0.078 -0.97627,-0.3368 -1.37695,-0.5801 -0.27481,-0.1666 -0.34466,-0.228 -0.48829,-0.332 -0.1429,0.107 -0.21848,0.1711 -0.50195,0.3457 -0.45539,0.2808 -0.98656,0.5977 -1.60156,0.5977 -0.61501,0 -1.15402,-0.3169 -1.60938,-0.5977 -0.27556,-0.1701 -0.34232,-0.2325 -0.48632,-0.3398 -0.14347,0.1073 -0.21755,0.1678 -0.4961,0.3398 -0.45539,0.2808 -0.98652,0.5977 -1.60156,0.5977 -0.615,0 -1.14621,-0.3169 -1.60156,-0.5977 -0.28165,-0.1738 -0.35871,-0.2387 -0.50196,-0.3457 z" style="opacity:1;fill:#7a8cbd;fill-opacity:1;stroke:none;stroke-width:1.99999988;stroke-linecap:round;stroke-linejoin:miter;stroke-miterlimit:4;stroke-dasharray:none;stroke-opacity:1"></path></g></svg></g></g></svg>